<svg xmlns="http://www.w3.org/2000/svg" viewBox="0 0 409 769"><defs><style>.cls-1{fill:none;stroke:#fff;stroke-miterlimit:10;}</style></defs><g id="Слой_2" data-name="Слой 2"><g id="Слой_5" data-name="Слой 5"><rect class="cls-1" x="0.5" y="0.5" width="408" height="768"/><line class="cls-1" x1="0.5" y1="744.5" x2="408.5" y2="744.5"/><line class="cls-1" x1="0.5" y1="720.5" x2="408.5" y2="720.5"/><line class="cls-1" x1="0.5" y1="696.5" x2="408.5" y2="696.5"/><line class="cls-1" x1="0.5" y1="672.5" x2="408.5" y2="672.5"/><line class="cls-1" x1="0.5" y1="648.5" x2="408.5" y2="648.5"/><line class="cls-1" x1="0.5" y1="624.5" x2="408.5" y2="624.5"/><line class="cls-1" x1="0.5" y1="600.5" x2="408.5" y2="600.5"/><line class="cls-1" x1="0.5" y1="576.5" x2="408.5" y2="576.5"/><line class="cls-1" x1="0.5" y1="552.5" x2="408.5" y2="552.5"/><line class="cls-1" x1="0.5" y1="528.5" x2="408.5" y2="528.5"/><line class="cls-1" x1="0.5" y1="504.5" x2="408.5" y2="504.5"/><line class="cls-1" x1="0.5" y1="480.5" x2="408.5" y2="480.5"/><line class="cls-1" x1="0.5" y1="456.5" x2="408.5" y2="456.5"/><line class="cls-1" x1="0.5" y1="432.5" x2="408.5" y2="432.5"/><line class="cls-1" x1="0.5" y1="408.5" x2="408.5" y2="408.5"/><line class="cls-1" x1="0.5" y1="384.5" x2="408.5" y2="384.5"/><line class="cls-1" x1="0.5" y1="360.5" x2="408.5" y2="360.5"/><line class="cls-1" x1="0.5" y1="336.5" x2="408.5" y2="336.5"/><line class="cls-1" x1="0.5" y1="312.5" x2="408.5" y2="312.5"/><line class="cls-1" x1="0.5" y1="288.5" x2="408.5" y2="288.5"/><line class="cls-1" x1="0.5" y1="264.5" x2="408.5" y2="264.5"/><line class="cls-1" x1="0.5" y1="240.5" x2="408.5" y2="240.5"/><line class="cls-1" x1="0.5" y1="216.5" x2="408.5" y2="216.5"/><line class="cls-1" x1="0.5" y1="192.5" x2="408.5" y2="192.5"/><line class="cls-1" x1="0.5" y1="168.5" x2="408.5" y2="168.5"/><line class="cls-1" x1="0.5" y1="144.5" x2="408.5" y2="144.5"/><line class="cls-1" x1="0.5" y1="120.5" x2="408.5" y2="120.5"/><line class="cls-1" x1="0.5" y1="96.5" x2="408.5" y2="96.5"/><line class="cls-1" x1="0.5" y1="72.5" x2="408.5" y2="72.5"/><line class="cls-1" x1="0.5" y1="48.5" x2="408.5" y2="48.5"/><line class="cls-1" x1="0.5" y1="24.5" x2="408.5" y2="24.5"/><line class="cls-1" x1="384.5" y1="0.5" x2="384.5" y2="768.5"/><line class="cls-1" x1="360.5" y1="0.5" x2="360.5" y2="768.5"/><line class="cls-1" x1="336.5" y1="0.5" x2="336.5" y2="768.5"/><line class="cls-1" x1="312.5" y1="0.5" x2="312.5" y2="768.5"/><line class="cls-1" x1="288.5" y1="0.5" x2="288.5" y2="768.5"/><line class="cls-1" x1="264.5" y1="0.5" x2="264.5" y2="768.5"/><line class="cls-1" x1="240.5" y1="0.5" x2="240.5" y2="768.5"/><line class="cls-1" x1="216.5" y1="0.5" x2="216.5" y2="768.5"/><line class="cls-1" x1="192.5" y1="0.5" x2="192.5" y2="768.5"/><line class="cls-1" x1="168.5" y1="0.5" x2="168.5" y2="768.5"/><line class="cls-1" x1="144.5" y1="0.5" x2="144.5" y2="768.5"/><line class="cls-1" x1="120.5" y1="0.5" x2="120.5" y2="768.5"/><line class="cls-1" x1="96.5" y1="0.5" x2="96.5" y2="768.5"/><line class="cls-1" x1="72.5" y1="0.5" x2="72.5" y2="768.5"/><line class="cls-1" x1="48.5" y1="0.5" x2="48.5" y2="768.5"/><line class="cls-1" x1="24.5" y1="0.5" x2="24.5" y2="768.5"/></g></g></svg>